mtllib SM_Rock_Flat_3.mtl
g SM_Rock_Flat_3
#Vertices 126
#Indices 126
#Section 0 Offset 0 NumIndices 126 MaterialIndex 0 MI_Rock
v -0.551921 0.203682 0.160483
v -0.035626 0.512023 0.082355
v -0.533860 0.182855 0.420964
v 0.124716 0.214781 -0.359578
v 0.882286 0.080573 -0.428811
v 0.933363 0.223288 -0.383886
v 0.666371 0.041959 1.229797
v 0.091994 0.005180 1.072024
v 0.285379 0.059735 1.194975
v 0.683690 0.312092 -0.244545
v -0.133414 0.380233 0.458871
v 0.399639 0.370488 -0.257162
v 0.683631 0.134536 1.250512
v 0.285379 0.059735 1.194975
v -0.270098 0.069662 0.749350
v 1.096851 -0.066890 0.159140
v 1.176057 0.100532 -0.179001
v 0.882286 0.080573 -0.428811
v -0.035626 0.512023 0.082355
v -0.551921 0.203682 0.160483
v -0.123240 0.345875 -0.109255
v 0.124716 0.214781 -0.359578
v 0.062435 0.032735 -0.158796
v 0.882286 0.080573 -0.428811
v 1.155117 0.195043 -0.058618
v 0.925725 0.044815 0.817270
v 0.683631 0.134536 1.250512
v 0.683631 0.134536 1.250512
v 0.925725 0.044815 0.817270
v 0.666371 0.041959 1.229797
v 1.096851 -0.066890 0.159140
v 0.925725 0.044815 0.817270
v 1.215519 0.054928 0.066394
v -0.533860 0.182855 0.420964
v -0.035626 0.512023 0.082355
v -0.133414 0.380233 0.458871
v 1.176057 0.100532 -0.179001
v 0.933363 0.223288 -0.383886
v 0.882286 0.080573 -0.428811
v 0.062435 0.032735 -0.158796
v -0.347638 0.013689 0.410582
v -0.099242 0.003063 0.876223
v -0.123240 0.345875 -0.109255
v -0.551921 0.203682 0.160483
v 0.124716 0.214781 -0.359578
v -0.533860 0.182855 0.420964
v -0.270098 0.069662 0.749350
v -0.347638 0.013689 0.410582
v -0.270098 0.069662 0.749350
v 0.091994 0.005180 1.072024
v -0.099242 0.003063 0.876223
v 1.155117 0.195043 -0.058618
v 1.176057 0.100532 -0.179001
v 1.215519 0.054928 0.066394
v 0.933363 0.223288 -0.383886
v 1.155117 0.195043 -0.058618
v 0.683690 0.312092 -0.244545
v 1.155117 0.195043 -0.058618
v 0.683631 0.134536 1.250512
v 0.683690 0.312092 -0.244545
v 0.683631 0.134536 1.250512
v -0.133414 0.380233 0.458871
v 0.683690 0.312092 -0.244545
v -0.133414 0.380233 0.458871
v -0.035626 0.512023 0.082355
v 0.399639 0.370488 -0.257162
v 0.666371 0.041959 1.229797
v 0.285379 0.059735 1.194975
v 0.683631 0.134536 1.250512
v 0.285379 0.059735 1.194975
v 0.091994 0.005180 1.072024
v -0.270098 0.069662 0.749350
v 1.096851 -0.066890 0.159140
v 1.215519 0.054928 0.066394
v 1.176057 0.100532 -0.179001
v -0.123240 0.345875 -0.109255
v 0.124716 0.214781 -0.359578
v 0.399639 0.370488 -0.257162
v 0.124716 0.214781 -0.359578
v 0.933363 0.223288 -0.383886
v 0.683690 0.312092 -0.244545
v 0.399639 0.370488 -0.257162
v 0.124716 0.214781 -0.359578
v 0.683690 0.312092 -0.244545
v 0.399639 0.370488 -0.257162
v -0.035626 0.512023 0.082355
v -0.123240 0.345875 -0.109255
v 0.124716 0.214781 -0.359578
v -0.551921 0.203682 0.160483
v 0.062435 0.032735 -0.158796
v 1.155117 0.195043 -0.058618
v 1.215519 0.054928 0.066394
v 0.925725 0.044815 0.817270
v 0.683631 0.134536 1.250512
v -0.270098 0.069662 0.749350
v -0.133414 0.380233 0.458871
v -0.270098 0.069662 0.749350
v -0.533860 0.182855 0.420964
v -0.133414 0.380233 0.458871
v 0.666371 0.041959 1.229797
v 0.925725 0.044815 0.817270
v 0.091994 0.005180 1.072024
v 0.925725 0.044815 0.817270
v 1.096851 -0.066890 0.159140
v 0.062435 0.032735 -0.158796
v 1.096851 -0.066890 0.159140
v 0.882286 0.080573 -0.428811
v 0.062435 0.032735 -0.158796
v 0.062435 0.032735 -0.158796
v -0.551921 0.203682 0.160483
v -0.347638 0.013689 0.410582
v -0.551921 0.203682 0.160483
v -0.533860 0.182855 0.420964
v -0.347638 0.013689 0.410582
v -0.347638 0.013689 0.410582
v -0.270098 0.069662 0.749350
v -0.099242 0.003063 0.876223
v 0.925725 0.044815 0.817270
v 0.062435 0.032735 -0.158796
v -0.099242 0.003063 0.876223
v -0.099242 0.003063 0.876223
v 0.091994 0.005180 1.072024
v 0.925725 0.044815 0.817270
v 1.155117 0.195043 -0.058618
v 0.933363 0.223288 -0.383886
v 1.176057 0.100532 -0.179001
vt 0.016830 0.679199
vt 0.276855 0.988739
vt 0.027893 0.643066
vt 0.382080 0.713867
vt 0.799805 0.451172
vt 0.818848 0.747314
vt 0.685547 0.366699
vt 0.377197 0.152344
vt 0.478516 0.328125
vt 0.678223 0.811890
vt 0.232178 0.832397
vt 0.520996 0.833740
vt 0.688965 0.586426
vt 0.478516 0.328125
vt 0.177490 0.339844
vt 0.925293 0.024414
vt 0.957520 0.479004
vt 0.799805 0.451172
vt 0.276855 0.988739
vt 0.016830 0.679199
vt 0.239868 0.810913
vt 0.382080 0.713867
vt 0.359619 0.229004
vt 0.799805 0.451172
vt 0.940430 0.702881
vt 0.825684 0.351074
vt 0.688965 0.586426
vt 0.688965 0.586426
vt 0.825684 0.351074
vt 0.685547 0.366699
vt 0.925293 0.024414
vt 0.825684 0.351074
vt 0.981934 0.345215
vt 0.027893 0.643066
vt 0.276855 0.988739
vt 0.232178 0.832397
vt 0.957520 0.479004
vt 0.818848 0.747314
vt 0.799805 0.451172
vt 0.359619 0.229004
vt 0.139038 0.192383
vt 0.273926 0.131836
vt 0.239868 0.810913
vt 0.016830 0.679199
vt 0.382080 0.713867
vt 0.027893 0.643066
vt 0.177490 0.339844
vt 0.139038 0.192383
vt 0.177490 0.339844
vt 0.377197 0.152344
vt 0.273926 0.131836
vt 0.940430 0.702881
vt 0.957520 0.479004
vt 0.981934 0.345215
vt 0.818848 0.747314
vt 0.940430 0.702881
vt 0.678223 0.811890
vt 0.940430 0.702881
vt 0.688965 0.586426
vt 0.678223 0.811890
vt 0.688965 0.586426
vt 0.232178 0.832397
vt 0.678223 0.811890
vt 0.232178 0.832397
vt 0.276855 0.988739
vt 0.520996 0.833740
vt 0.685547 0.366699
vt 0.478516 0.328125
vt 0.688965 0.586426
vt 0.478516 0.328125
vt 0.377197 0.152344
vt 0.177490 0.339844
vt 0.925293 0.024414
vt 0.981934 0.345215
vt 0.957520 0.479004
vt 0.239868 0.810913
vt 0.382080 0.713867
vt 0.520996 0.833740
vt 0.382080 0.713867
vt 0.818848 0.747314
vt 0.678223 0.811890
vt 0.520996 0.833740
vt 0.382080 0.713867
vt 0.678223 0.811890
vt 0.520996 0.833740
vt 0.276855 0.988739
vt 0.239868 0.810913
vt 0.382080 0.713867
vt 0.016830 0.679199
vt 0.359619 0.229004
vt 0.940430 0.702881
vt 0.981934 0.345215
vt 0.825684 0.351074
vt 0.688965 0.586426
vt 0.177490 0.339844
vt 0.232178 0.832397
vt 0.177490 0.339844
vt 0.027893 0.643066
vt 0.232178 0.832397
vt 0.685547 0.366699
vt 0.825684 0.351074
vt 0.377197 0.152344
vt 0.825684 0.351074
vt 0.925293 0.024414
vt 0.359619 0.229004
vt 0.925293 0.024414
vt 0.799805 0.451172
vt 0.359619 0.229004
vt 0.359619 0.229004
vt 0.016830 0.679199
vt 0.139038 0.192383
vt 0.016830 0.679199
vt 0.027893 0.643066
vt 0.139038 0.192383
vt 0.139038 0.192383
vt 0.177490 0.339844
vt 0.273926 0.131836
vt 0.825684 0.351074
vt 0.359619 0.229004
vt 0.273926 0.131836
vt 0.273926 0.131836
vt 0.377197 0.152344
vt 0.825684 0.351074
vt 0.940430 0.702881
vt 0.818848 0.747314
vt 0.957520 0.479004
vt1 0.479492 0.956543
vt1 0.454834 0.786133
vt1 0.403320 0.994629
vt1 0.004883 0.340576
vt1 0.004883 0.586426
vt1 0.055542 0.604492
vt1 0.995117 0.849121
vt1 0.848145 0.972656
vt1 0.912598 0.946289
vt1 0.433350 0.485596
vt1 0.353760 0.877441
vt1 0.479492 0.579102
vt1 0.005775 0.734375
vt1 0.069153 0.853027
vt1 0.268311 0.959473
vt1 0.817871 0.479248
vt1 0.740723 0.371338
vt1 0.624023 0.394531
vt1 0.580566 0.236572
vt1 0.413574 0.358643
vt1 0.599121 0.315430
vt1 0.489990 0.617188
vt1 0.536621 0.688477
vt1 0.624023 0.394531
vt1 0.309326 0.357666
vt1 0.086243 0.577148
vt1 0.005775 0.734375
vt1 0.101379 0.942383
vt1 0.006435 0.994141
vt1 0.102661 0.977051
vt1 0.817871 0.479248
vt1 0.942383 0.679199
vt1 0.811523 0.420166
vt1 0.403320 0.994629
vt1 0.454834 0.786133
vt1 0.353760 0.877441
vt1 0.155884 0.297607
vt1 0.030106 0.261475
vt1 0.005962 0.309570
vt1 0.536621 0.688477
vt1 0.600098 0.937988
vt1 0.763184 0.979492
vt1 0.599121 0.315430
vt1 0.413574 0.358643
vt1 0.725098 0.358643
vt1 0.558594 0.986328
vt1 0.695801 0.995117
vt1 0.600098 0.937988
vt1 0.021729 0.339355
vt1 0.186035 0.321289
vt1 0.096252 0.316406
vt1 0.178467 0.265137
vt1 0.155884 0.297607
vt1 0.230225 0.309570
vt1 0.431396 0.375977
vt1 0.309326 0.357666
vt1 0.433350 0.485596
vt1 0.309326 0.357666
vt1 0.005775 0.734375
vt1 0.433350 0.485596
vt1 0.005775 0.734375
vt1 0.353760 0.877441
vt1 0.433350 0.485596
vt1 0.353760 0.877441
vt1 0.454834 0.786133
vt1 0.479492 0.579102
vt1 0.102661 0.977051
vt1 0.263184 0.994141
vt1 0.101379 0.942383
vt1 0.275391 0.339355
vt1 0.186035 0.321289
vt1 0.021729 0.339355
vt1 0.817871 0.479248
vt1 0.811523 0.420166
vt1 0.740723 0.371338
vt1 0.599121 0.315430
vt1 0.725098 0.358643
vt1 0.779297 0.275391
vt1 0.004883 0.340576
vt1 0.055542 0.604492
vt1 0.089905 0.500488
vt1 0.039307 0.892578
vt1 0.004883 0.771973
vt1 0.004883 0.976562
vt1 0.779297 0.275391
vt1 0.580566 0.236572
vt1 0.599121 0.315430
vt1 0.489990 0.617188
vt1 0.489990 0.929199
vt1 0.536621 0.688477
vt1 0.309326 0.357666
vt1 0.255859 0.353516
vt1 0.086243 0.577148
vt1 0.005775 0.734375
vt1 0.268311 0.959473
vt1 0.353760 0.877441
vt1 0.268311 0.959473
vt1 0.403320 0.994629
vt1 0.353760 0.877441
vt1 0.995117 0.849121
vt1 0.942383 0.679199
vt1 0.848145 0.972656
vt1 0.942383 0.679199
vt1 0.817871 0.479248
vt1 0.536621 0.688477
vt1 0.817871 0.479248
vt1 0.624023 0.394531
vt1 0.536621 0.688477
vt1 0.536621 0.688477
vt1 0.489990 0.929199
vt1 0.600098 0.937988
vt1 0.489990 0.929199
vt1 0.558594 0.986328
vt1 0.600098 0.937988
vt1 0.600098 0.937988
vt1 0.695801 0.995117
vt1 0.763184 0.979492
vt1 0.942383 0.679199
vt1 0.536621 0.688477
vt1 0.763184 0.979492
vt1 0.763184 0.979492
vt1 0.848145 0.972656
vt1 0.942383 0.679199
vt1 0.178467 0.265137
vt1 0.030106 0.261475
vt1 0.155884 0.297607
vn -0.496063 0.858268 0.102362
vn -0.496063 0.858268 0.102362
vn -0.496063 0.858268 0.102362
vn -0.031496 0.307087 -0.952756
vn -0.031496 0.307087 -0.952756
vn -0.031496 0.307087 -0.952756
vn -0.086614 -0.850394 0.511811
vn -0.086614 -0.850394 0.511811
vn -0.086614 -0.850394 0.511811
vn 0.196850 0.968504 0.133858
vn 0.196850 0.968504 0.133858
vn 0.196850 0.968504 0.133858
vn -0.212598 0.929134 0.291339
vn -0.212598 0.929134 0.291339
vn -0.212598 0.929134 0.291339
vn 0.354331 -0.866142 -0.346457
vn 0.354331 -0.866142 -0.346457
vn 0.354331 -0.866142 -0.346457
vn -0.511811 0.748031 -0.417323
vn -0.511811 0.748031 -0.417323
vn -0.511811 0.748031 -0.417323
vn -0.188976 -0.700787 -0.692913
vn -0.188976 -0.700787 -0.692913
vn -0.188976 -0.700787 -0.692913
vn 0.748031 0.590551 0.299213
vn 0.748031 0.590551 0.299213
vn 0.748031 0.590551 0.299213
vn 0.818898 -0.267717 0.511811
vn 0.818898 -0.267717 0.511811
vn 0.818898 -0.267717 0.511811
vn 0.787402 -0.543307 0.299213
vn 0.787402 -0.543307 0.299213
vn 0.787402 -0.543307 0.299213
vn -0.448819 0.874016 0.188976
vn -0.448819 0.874016 0.188976
vn -0.448819 0.874016 0.188976
vn 0.645669 0.007874 -0.763780
vn 0.645669 0.007874 -0.763780
vn 0.645669 0.007874 -0.763780
vn 0.007874 -1.000000 -0.023622
vn 0.007874 -1.000000 -0.023622
vn 0.007874 -1.000000 -0.023622
vn -0.574803 0.330709 -0.748031
vn -0.574803 0.330709 -0.748031
vn -0.574803 0.330709 -0.748031
vn -0.637795 -0.724409 0.267717
vn -0.637795 -0.724409 0.267717
vn -0.637795 -0.724409 0.267717
vn -0.637795 -0.440945 0.629921
vn -0.637795 -0.440945 0.629921
vn -0.637795 -0.440945 0.629921
vn 0.944882 0.322835 -0.094488
vn 0.944882 0.322835 -0.094488
vn 0.944882 0.322835 -0.094488
vn 0.275591 0.952756 -0.110236
vn 0.275591 0.952756 -0.110236
vn 0.275591 0.952756 -0.110236
vn 0.196850 0.976378 0.118110
vn 0.196850 0.976378 0.118110
vn 0.196850 0.976378 0.118110
vn 0.181102 0.976378 0.118110
vn 0.181102 0.976378 0.118110
vn 0.181102 0.976378 0.118110
vn 0.551181 0.732283 0.401575
vn 0.551181 0.732283 0.401575
vn 0.551181 0.732283 0.401575
vn -0.094488 -0.196850 0.976378
vn -0.094488 -0.196850 0.976378
vn -0.094488 -0.196850 0.976378
vn -0.566929 0.401575 0.716535
vn -0.566929 0.401575 0.716535
vn -0.566929 0.401575 0.716535
vn 0.598425 -0.763780 -0.236220
vn 0.598425 -0.763780 -0.236220
vn 0.598425 -0.763780 -0.236220
vn -0.204724 0.763780 -0.606299
vn -0.204724 0.763780 -0.606299
vn -0.204724 0.763780 -0.606299
vn -0.023622 0.818898 -0.566929
vn -0.023622 0.818898 -0.566929
vn -0.023622 0.818898 -0.566929
vn 0.118110 0.385827 -0.913386
vn 0.118110 0.385827 -0.913386
vn 0.118110 0.385827 -0.913386
vn -0.204724 0.787402 -0.590551
vn -0.204724 0.787402 -0.590551
vn -0.204724 0.787402 -0.590551
vn -0.496063 -0.559055 -0.661417
vn -0.496063 -0.559055 -0.661417
vn -0.496063 -0.559055 -0.661417
vn 0.748031 0.590551 0.299213
vn 0.748031 0.590551 0.299213
vn 0.748031 0.590551 0.299213
vn -0.362205 0.716535 0.598425
vn -0.362205 0.716535 0.598425
vn -0.362205 0.716535 0.598425
vn -0.409449 0.716535 0.574803
vn -0.409449 0.716535 0.574803
vn -0.409449 0.716535 0.574803
vn 0.055118 -1.000000 0.031496
vn 0.055118 -1.000000 0.031496
vn 0.055118 -1.000000 0.031496
vn -0.133858 -0.984252 0.133858
vn -0.133858 -0.984252 0.133858
vn -0.133858 -0.984252 0.133858
vn -0.023622 -0.968504 -0.236220
vn -0.023622 -0.968504 -0.236220
vn -0.023622 -0.968504 -0.236220
vn -0.401575 -0.858268 -0.322835
vn -0.401575 -0.858268 -0.322835
vn -0.401575 -0.858268 -0.322835
vn -0.669291 -0.740157 -0.015748
vn -0.669291 -0.740157 -0.015748
vn -0.669291 -0.740157 -0.015748
vn -0.511811 -0.826772 0.251969
vn -0.511811 -0.826772 0.251969
vn -0.511811 -0.826772 0.251969
vn 0.039370 -1.000000 -0.023622
vn 0.039370 -1.000000 -0.023622
vn 0.039370 -1.000000 -0.023622
vn 0.039370 -1.000000 -0.023622
vn 0.039370 -1.000000 -0.023622
vn 0.039370 -1.000000 -0.023622
vn 0.653543 0.645669 -0.393701
vn 0.653543 0.645669 -0.393701
vn 0.653543 0.645669 -0.393701
tan 0.299213 0.055118 0.952756 1.000000
tan 0.299213 0.055118 0.952756 1.000000
tan 0.299213 0.055118 0.952756 1.000000
tan 1.000000 -0.007874 -0.039370 1.000000
tan 1.000000 -0.007874 -0.039370 1.000000
tan 1.000000 -0.007874 -0.039370 1.000000
tan 0.992126 -0.086614 0.023622 1.000000
tan 0.992126 -0.086614 0.023622 1.000000
tan 0.992126 -0.086614 0.023622 1.000000
tan 0.606299 -0.015748 -0.795276 1.000000
tan 0.606299 -0.015748 -0.795276 1.000000
tan 0.606299 -0.015748 -0.795276 1.000000
tan 0.787402 -0.007874 0.614173 1.000000
tan 0.787402 -0.007874 0.614173 1.000000
tan 0.787402 -0.007874 0.614173 1.000000
tan 0.732283 0.023622 0.685039 1.000000
tan 0.732283 0.023622 0.685039 1.000000
tan 0.732283 0.023622 0.685039 1.000000
tan 0.661417 0.031496 -0.748031 1.000000
tan 0.661417 0.031496 -0.748031 1.000000
tan 0.661417 0.031496 -0.748031 1.000000
tan 0.976378 -0.047244 -0.220472 1.000000
tan 0.976378 -0.047244 -0.220472 1.000000
tan 0.976378 -0.047244 -0.220472 1.000000
tan 0.362205 0.007874 -0.929134 1.000000
tan 0.362205 0.007874 -0.929134 1.000000
tan 0.362205 0.007874 -0.929134 1.000000
tan 0.535433 0.015748 -0.842520 1.000000
tan 0.535433 0.015748 -0.842520 1.000000
tan 0.535433 0.015748 -0.842520 1.000000
tan 0.362205 0.015748 -0.929134 1.000000
tan 0.362205 0.015748 -0.929134 1.000000
tan 0.362205 0.015748 -0.929134 1.000000
tan 0.496063 0.062992 0.866142 1.000000
tan 0.496063 0.062992 0.866142 1.000000
tan 0.496063 0.062992 0.866142 1.000000
tan 0.763780 0.015748 0.645669 1.000000
tan 0.763780 0.015748 0.645669 1.000000
tan 0.763780 0.015748 0.645669 1.000000
tan 0.889764 0.023622 -0.448819 1.000000
tan 0.889764 0.023622 -0.448819 1.000000
tan 0.889764 0.023622 -0.448819 1.000000
tan 0.779528 -0.039370 -0.622047 1.000000
tan 0.779528 -0.039370 -0.622047 1.000000
tan 0.779528 -0.039370 -0.622047 1.000000
tan 0.377953 0.000000 0.921260 1.000000
tan 0.377953 0.000000 0.921260 1.000000
tan 0.377953 0.000000 0.921260 1.000000
tan 0.708661 -0.015748 0.708661 1.000000
tan 0.708661 -0.015748 0.708661 1.000000
tan 0.708661 -0.015748 0.708661 1.000000
tan 0.086614 0.031496 0.992126 1.000000
tan 0.086614 0.031496 0.992126 1.000000
tan 0.086614 0.031496 0.992126 1.000000
tan 0.118110 0.078740 0.992126 1.000000
tan 0.118110 0.078740 0.992126 1.000000
tan 0.118110 0.078740 0.992126 1.000000
tan 0.661417 -0.047244 -0.748031 1.000000
tan 0.661417 -0.047244 -0.748031 1.000000
tan 0.661417 -0.047244 -0.748031 1.000000
tan 0.692913 -0.047244 -0.716535 1.000000
tan 0.692913 -0.047244 -0.716535 1.000000
tan 0.692913 -0.047244 -0.716535 1.000000
tan 0.598425 -0.015748 -0.803150 1.000000
tan 0.598425 -0.015748 -0.803150 1.000000
tan 0.598425 -0.015748 -0.803150 1.000000
tan 0.992126 -0.086614 0.078740 1.000000
tan 0.992126 -0.086614 0.078740 1.000000
tan 0.992126 -0.086614 0.078740 1.000000
tan 0.779528 -0.007874 0.622047 1.000000
tan 0.779528 -0.007874 0.622047 1.000000
tan 0.779528 -0.007874 0.622047 1.000000
tan 0.393701 0.023622 0.921260 1.000000
tan 0.393701 0.023622 0.921260 1.000000
tan 0.393701 0.023622 0.921260 1.000000
tan 0.944882 -0.007874 -0.338583 1.000000
tan 0.944882 -0.007874 -0.338583 1.000000
tan 0.944882 -0.007874 -0.338583 1.000000
tan 0.992126 -0.039370 -0.102362 1.000000
tan 0.992126 -0.039370 -0.102362 1.000000
tan 0.992126 -0.039370 -0.102362 1.000000
tan 0.992126 -0.086614 0.094488 1.000000
tan 0.992126 -0.086614 0.094488 1.000000
tan 0.992126 -0.086614 0.094488 1.000000
tan 0.944882 0.007874 -0.322835 1.000000
tan 0.944882 0.007874 -0.322835 1.000000
tan 0.944882 0.007874 -0.322835 1.000000
tan 0.795276 0.000000 -0.598425 1.000000
tan 0.795276 0.000000 -0.598425 1.000000
tan 0.795276 0.000000 -0.598425 1.000000
tan 0.354331 0.015748 -0.937008 1.000000
tan 0.354331 0.015748 -0.937008 1.000000
tan 0.354331 0.015748 -0.937008 1.000000
tan 0.803150 -0.078740 0.590551 1.000000
tan 0.803150 -0.078740 0.590551 1.000000
tan 0.803150 -0.078740 0.590551 1.000000
tan 0.897638 0.204724 0.385827 1.000000
tan 0.897638 0.204724 0.385827 1.000000
tan 0.897638 0.204724 0.385827 1.000000
tan 0.598425 0.007874 -0.795276 1.000000
tan 0.598425 0.007874 -0.795276 1.000000
tan 0.598425 0.007874 -0.795276 1.000000
tan 0.787402 -0.023622 0.622047 1.000000
tan 0.787402 -0.023622 0.622047 1.000000
tan 0.787402 -0.023622 0.622047 1.000000
tan 1.000000 -0.031496 0.039370 1.000000
tan 1.000000 -0.031496 0.039370 1.000000
tan 1.000000 -0.031496 0.039370 1.000000
tan 0.614173 0.007874 -0.787402 1.000000
tan 0.614173 0.007874 -0.787402 1.000000
tan 0.614173 0.007874 -0.787402 1.000000
tan 0.015748 -0.031496 1.000000 1.000000
tan 0.015748 -0.031496 1.000000 1.000000
tan 0.015748 -0.031496 1.000000 1.000000
tan 0.417323 0.015748 0.905512 1.000000
tan 0.417323 0.015748 0.905512 1.000000
tan 0.417323 0.015748 0.905512 1.000000
tan 0.275591 -0.007874 0.960630 1.000000
tan 0.275591 -0.007874 0.960630 1.000000
tan 0.275591 -0.007874 0.960630 1.000000
tan 0.425197 -0.007874 0.905512 1.000000
tan 0.425197 -0.007874 0.905512 1.000000
tan 0.425197 -0.007874 0.905512 1.000000
tan 0.527559 -0.023622 0.850394 1.000000
tan 0.527559 -0.023622 0.850394 1.000000
tan 0.527559 -0.023622 0.850394 1.000000
f 3/3/3 2/2/2 1/1/1
f 6/6/6 5/5/5 4/4/4
f 9/9/9 8/8/8 7/7/7
f 12/12/12 11/11/11 10/10/10
f 15/15/15 14/14/14 13/13/13
f 18/18/18 17/17/17 16/16/16
f 21/21/21 20/20/20 19/19/19
f 24/24/24 23/23/23 22/22/22
f 27/27/27 26/26/26 25/25/25
f 30/30/30 29/29/29 28/28/28
f 33/33/33 32/32/32 31/31/31
f 36/36/36 35/35/35 34/34/34
f 39/39/39 38/38/38 37/37/37
f 42/42/42 41/41/41 40/40/40
f 45/45/45 44/44/44 43/43/43
f 48/48/48 47/47/47 46/46/46
f 51/51/51 50/50/50 49/49/49
f 54/54/54 53/53/53 52/52/52
f 57/57/57 56/56/56 55/55/55
f 60/60/60 59/59/59 58/58/58
f 63/63/63 62/62/62 61/61/61
f 66/66/66 65/65/65 64/64/64
f 69/69/69 68/68/68 67/67/67
f 72/72/72 71/71/71 70/70/70
f 75/75/75 74/74/74 73/73/73
f 78/78/78 77/77/77 76/76/76
f 81/81/81 80/80/80 79/79/79
f 84/84/84 83/83/83 82/82/82
f 87/87/87 86/86/86 85/85/85
f 90/90/90 89/89/89 88/88/88
f 93/93/93 92/92/92 91/91/91
f 96/96/96 95/95/95 94/94/94
f 99/99/99 98/98/98 97/97/97
f 102/102/102 101/101/101 100/100/100
f 105/105/105 104/104/104 103/103/103
f 108/108/108 107/107/107 106/106/106
f 111/111/111 110/110/110 109/109/109
f 114/114/114 113/113/113 112/112/112
f 117/117/117 116/116/116 115/115/115
f 120/120/120 119/119/119 118/118/118
f 123/123/123 122/122/122 121/121/121
f 126/126/126 125/125/125 124/124/124
